<?xml version="1.0" encoding="utf-8"?>
<!-- Generator: Adobe Illustrator 15.0.2, SVG Export Plug-In  -->
<!DOCTYPE svg PUBLIC "-//W3C//DTD SVG 1.1//EN" "http://www.w3.org/Graphics/SVG/1.1/DTD/svg11.dtd" [
	<!ENTITY ns_flows "http://ns.adobe.com/Flows/1.0/">
]>
<svg version="1.1"
	 xmlns="http://www.w3.org/2000/svg" xmlns:xlink="http://www.w3.org/1999/xlink" xmlns:a="http://ns.adobe.com/AdobeSVGViewerExtensions/3.0/"
	 x="0px" y="0px" width="24px" height="24px" viewBox="0 0 24 24" enable-background="new 0 0 24 24" xml:space="preserve">
<defs>
</defs>
<circle fill="#00CAEA" cx="12" cy="12" r="12"/>
<path fill="#FFFFFF" d="M8.498,16.5c-0.62,0-1.203-0.118-1.751-0.355c-0.547-0.237-1.023-0.559-1.43-0.965
	c-0.407-0.406-0.729-0.883-0.966-1.43S3.996,12.62,3.996,12s0.118-1.203,0.355-1.75S4.91,9.227,5.317,8.82
	C5.724,8.414,6.2,8.093,6.747,7.855C7.295,7.618,7.878,7.5,8.498,7.5h2.001c0.136,0,0.253,0.05,0.352,0.148
	C10.95,7.747,11,7.864,11,8s-0.05,0.253-0.149,0.352C10.752,8.45,10.635,8.5,10.499,8.5H8.498c-0.484,0-0.939,0.091-1.363,0.273
	C6.71,8.956,6.338,9.206,6.021,9.523c-0.318,0.317-0.568,0.688-0.75,1.113C5.088,11.062,4.997,11.516,4.997,12
	s0.091,0.938,0.273,1.363c0.182,0.425,0.432,0.796,0.75,1.113c0.317,0.317,0.689,0.567,1.114,0.75
	C7.559,15.409,8.014,15.5,8.498,15.5h2.001c0.136,0,0.253,0.05,0.352,0.148C10.95,15.747,11,15.864,11,16s-0.05,0.253-0.149,0.352
	c-0.099,0.099-0.216,0.148-0.352,0.148H8.498z M8.443,12.5c-0.136,0-0.243-0.052-0.324-0.156S7.998,12.125,7.998,12
	s0.04-0.239,0.121-0.344S8.308,11.5,8.443,11.5h7.113c0.136,0,0.243,0.052,0.324,0.156s0.121,0.219,0.121,0.344
	s-0.04,0.239-0.121,0.344S15.692,12.5,15.557,12.5H8.443z M13.501,16.5c-0.136,0-0.253-0.05-0.352-0.148
	c-0.1-0.099-0.148-0.216-0.148-0.352s0.049-0.253,0.148-0.352c0.099-0.099,0.216-0.148,0.352-0.148h2.001
	c0.484,0,0.939-0.091,1.364-0.273c0.424-0.183,0.796-0.433,1.113-0.75s0.568-0.688,0.75-1.113c0.183-0.425,0.274-0.879,0.274-1.363
	s-0.092-0.938-0.274-1.363c-0.182-0.425-0.433-0.796-0.75-1.113s-0.689-0.567-1.113-0.75C16.441,8.591,15.986,8.5,15.502,8.5h-2.001
	c-0.136,0-0.253-0.05-0.352-0.148C13.05,8.253,13.001,8.136,13.001,8s0.049-0.253,0.148-0.352C13.248,7.55,13.365,7.5,13.501,7.5
	h2.001c0.62,0,1.203,0.118,1.751,0.355c0.547,0.237,1.023,0.559,1.43,0.965c0.407,0.406,0.729,0.883,0.966,1.43
	s0.355,1.13,0.355,1.75s-0.118,1.203-0.355,1.75s-0.559,1.023-0.966,1.43c-0.406,0.406-0.883,0.728-1.43,0.965
	c-0.548,0.237-1.131,0.355-1.751,0.355H13.501z"/>
</svg>
