<?xml version="1.0" encoding="utf-8"?>
<!-- Generator: Adobe Illustrator 15.0.2, SVG Export Plug-In  -->
<!DOCTYPE svg PUBLIC "-//W3C//DTD SVG 1.1//EN" "http://www.w3.org/Graphics/SVG/1.1/DTD/svg11.dtd" [
	<!ENTITY ns_flows "http://ns.adobe.com/Flows/1.0/">
]>
<svg version="1.1"
	 xmlns="http://www.w3.org/2000/svg" xmlns:xlink="http://www.w3.org/1999/xlink" xmlns:a="http://ns.adobe.com/AdobeSVGViewerExtensions/3.0/"
	 x="0px" y="0px" width="272px" height="38px" viewBox="0 0 272 38" enable-background="new 0 0 272 38" xml:space="preserve">
<defs>
</defs>
<path fill="#00B7D3" d="M39.427,10.798C31.976,5.535,17.939,4.836,8.303,9.271c-9.284,4.27-11.093,12.613-3.849,17.7
	c7.381,5.194,21.718,5.897,31.124,1.529C45.331,23.969,47.021,16.169,39.427,10.798z M15.368,27.428
	c-3.926-2.768-2.977-7.393,2.117-9.752c5.181-2.397,13.026-2.063,17.146,0.844c2.519,1.775,3.144,4.061,2.081,6.145
	c-0.816,0.611-1.76,1.184-2.838,1.701c1.111-1.57,0.816-3.399-1.121-4.766c-2.87-2.025-8.322-2.271-11.963-0.586
	c-3.616,1.672-4.289,4.824-1.48,6.801c0.505,0.357,1.118,0.641,1.771,0.887c-1.404-0.047-2.794-0.156-4.127-0.373
	C16.376,28.061,15.843,27.763,15.368,27.428z M32.525,26.904c-2.557,1.012-5.478,1.619-8.477,1.783
	c-0.763-0.207-1.454-0.505-2.013-0.898c-2.123-1.487-1.623-3.737,1.081-4.977c2.697-1.24,6.711-1.02,8.753,0.432
	C33.316,24.264,33.476,25.707,32.525,26.904z M37.663,23.884c1.795-2.782,1.258-5.863-1.938-8.12
	c-4.842-3.413-14.431-3.542-20.779-0.371c-5.569,2.773-7.148,7.82-4.086,11.146c-0.815-0.378-1.57-0.788-2.233-1.255
	c-5.526-3.901-4.157-10.841,3.091-14.197c7.498-3.469,19.023-2.967,24.964,1.227C41.451,15.678,41.62,20.305,37.663,23.884z"/>
<path fill="#00B7D3" d="M81.917,31.088V8.584h-8.049V6.351h18.44v2.233h-8.048v22.504H81.917z"/>
<path fill="#00B7D3" d="M110.044,31.088l-2.849-7.195H95.51l-2.839,7.195h-2.37l9.708-24.737h2.764l9.708,24.737H110.044z
	 M101.445,9.045h-0.178l-4.996,12.694h10.171L101.445,9.045z"/>
<path fill="#00B7D3" d="M115.493,6.351h7.662c3.377,0,5.757,0.29,7.135,0.866c1.378,0.57,2.258,1.651,2.643,3.23
	c0.385,1.583,0.572,4.337,0.572,8.275c0,3.925-0.188,6.687-0.572,8.268c-0.385,1.576-1.265,2.662-2.643,3.234
	c-1.378,0.573-3.758,0.863-7.135,0.863h-7.662V6.351z M122.54,28.934c3.046,0,5.099-0.172,6.151-0.488
	c1.052-0.324,1.735-1.119,2.053-2.396c0.308-1.267,0.461-3.71,0.461-7.327c0-3.578-0.163-6.01-0.479-7.299
	c-0.326-1.303-1.027-2.105-2.089-2.43c-1.068-0.324-3.104-0.488-6.098-0.488h-4.748v20.428H122.54z"/>
<path fill="#00B7D3" d="M138.382,31.088V6.351h2.302v24.737H138.382z"/>
<path fill="#00B7D3" d="M164.148,6.351v14.022c0,3.188-0.207,5.516-0.602,6.994c-0.392,1.473-1.231,2.506-2.497,3.107
	c-1.273,0.598-3.327,0.896-6.186,0.896c-2.847,0-4.918-0.299-6.199-0.915c-1.283-0.608-2.123-1.649-2.516-3.104
	c-0.393-1.463-0.6-3.79-0.6-6.979V6.351h2.303v15.175c0,2.326,0.137,3.986,0.419,4.98c0.273,0.989,0.879,1.692,1.829,2.102
	c0.949,0.402,2.543,0.607,4.764,0.607c2.234,0,3.817-0.205,4.767-0.607c0.95-0.409,1.548-1.112,1.813-2.102
	c0.265-0.994,0.394-2.654,0.394-4.98V6.351H164.148z"/>
<path fill="#00B7D3" d="M191.521,31.088V10.447h-0.138l-9.282,20.641h-1.762l-9.271-20.641h-0.146v20.641h-2.199V6.351h3.098
	l9.349,20.778h0.182l9.381-20.778h3.055v24.737H191.521z"/>
<path fill="#00B7D3" d="M72.491,24.672c0.006-0.041,0.006-0.074,0.006-0.118c0.011-1.345,0-5.39-2.906-6.81
	c-1.282-0.633-3.6-0.83-6.816-0.838c0,0-4.295-0.11-5.167-0.375c-0.694-0.215-0.958-0.557-1.328-1.19
	c-0.059-0.155-0.109-0.308-0.152-0.487c-0.077-0.309-0.146-0.693-0.204-1.147l0,0c-0.069-0.572,0-1.249,0.016-1.436
	c0.06-0.386,0.12-0.718,0.188-1.001c0.316-1.25,0.991-2.035,2.027-2.355c1.035-0.313,3.002-0.469,5.912-0.469h4.609h2.267V6.351
	h-7.469c-3.284,0-5.593,0.282-6.928,0.84c-1.343,0.554-2.198,1.597-2.564,3.138c-0.086,0.366-0.174,0.796-0.233,1.285l0,0
	c-0.007,0.006-0.007,0.006-0.007,0.006c-0.02,0.18-0.044,0.361-0.061,0.557l0,0c0,0-0.086,1.07,0,1.778
	c0.024,0.258,0.041,0.378,0.061,0.547c0,0.011,0,0.011,0.007,0.019l0,0c0.036,0.292,0.086,0.555,0.13,0.805H53.86
	c0.385,1.472,0.914,2.403,2.162,3.121c1.283,0.736,6.725,0.65,6.725,0.65c2.523,0.018,5.074,0.145,5.877,0.721
	c1.609,1.154,1.618,3.267,1.618,4.855c-0.009,0.111-0.009,0.23-0.025,0.344l0,0c-0.061,0.452-0.129,0.837-0.207,1.146
	c-0.316,1.259-0.992,2.044-2.028,2.362c-1.035,0.307-3.001,0.473-5.91,0.473h-4.61l-3.387-0.01v2.102h8.589
	c3.283,0,5.594-0.282,6.928-0.839c1.342-0.556,2.2-1.608,2.564-3.138c0.086-0.367,0.173-0.794,0.233-1.283c0,0,0,0,0-0.008
	c0,0,0,0,0-0.008c0.025-0.172,0.042-0.291,0.067-0.548c0.025-0.146,0.025-0.318,0.035-0.481l0,0
	C72.491,24.752,72.491,24.707,72.491,24.672z"/>
<line fill="none" stroke="#B2B6BA" stroke-miterlimit="10" x1="203.786" y1="0" x2="203.786" y2="37.965"/>
<path fill="#196A78" d="M214.596,8.461h9.406c1.938,0,3.311,0.444,4.119,1.333c0.81,0.889,1.214,2.161,1.214,3.819
	c0,1.357-0.28,2.445-0.84,3.265c-0.559,0.819-1.448,1.348-2.666,1.587v0.121c1.458,0.26,2.446,0.823,2.966,1.691
	c0.52,0.869,0.778,1.992,0.778,3.371c0,1.656-0.404,2.975-1.213,3.953s-2.321,1.468-4.537,1.468h-9.228V8.461z M227.417,14.002
	c0-1.338-0.284-2.296-0.854-2.875c-0.568-0.579-1.612-0.869-3.129-0.869h-6.92v7.459h6.92
	C226.09,17.717,227.417,16.479,227.417,14.002z M226.743,26.373c0.608-0.6,0.914-1.587,0.914-2.965c0-1.379-0.32-2.371-0.959-2.98
	c-0.64-0.609-1.688-0.914-3.146-0.914h-7.039v7.758h7.039C225.069,27.271,226.134,26.973,226.743,26.373z"/>
<path fill="#196A78" d="M234.636,29.069V6.813h1.827v22.256H234.636z"/>
<path fill="#196A78" d="M243.411,28.68c-0.897-0.419-1.473-1.143-1.722-2.172c-0.25-1.027-0.375-2.721-0.375-5.076
	c0-2.357,0.125-4.049,0.375-5.078c0.249-1.027,0.824-1.752,1.722-2.172c0.898-0.419,2.397-0.629,4.494-0.629s3.595,0.21,4.493,0.629
	c0.898,0.42,1.473,1.145,1.722,2.172c0.25,1.029,0.374,2.721,0.374,5.078c0,2.355-0.124,4.049-0.374,5.076
	c-0.249,1.029-0.823,1.753-1.722,2.172c-0.898,0.42-2.396,0.629-4.493,0.629S244.31,29.1,243.411,28.68z M251.275,27.197
	c0.629-0.289,1.013-0.814,1.153-1.573c0.139-0.758,0.209-2.156,0.209-4.192c0-2.037-0.07-3.43-0.209-4.18
	c-0.141-0.748-0.524-1.273-1.153-1.572c-0.63-0.299-1.753-0.449-3.37-0.449s-2.741,0.15-3.37,0.449
	c-0.63,0.299-1.019,0.824-1.168,1.572c-0.15,0.75-0.225,2.143-0.225,4.18c0,2.036,0.074,3.435,0.225,4.192
	c0.149,0.759,0.538,1.284,1.168,1.573c0.629,0.289,1.753,0.435,3.37,0.435S250.646,27.486,251.275,27.197z"/>
<path fill="#196A78" d="M259.347,35v-1.647c1.816,0.14,3.524,0.21,5.121,0.21c1.598,0,2.757-0.165,3.476-0.494
	c0.72-0.33,1.193-0.904,1.423-1.723s0.344-2.097,0.344-3.834v-0.539h-0.148c-0.36,0.818-0.959,1.403-1.798,1.752
	c-0.839,0.35-1.947,0.524-3.324,0.524c-1.617,0-2.832-0.22-3.64-0.659c-0.81-0.439-1.374-1.202-1.692-2.291
	c-0.319-1.089-0.479-2.711-0.479-4.867c0-2.158,0.16-3.79,0.479-4.898c0.318-1.107,0.883-1.882,1.692-2.321
	c0.808-0.438,2.022-0.659,3.64-0.659c1.317,0,2.421,0.176,3.31,0.524c0.888,0.35,1.532,1.024,1.932,2.021h0.149l0.12-2.306h1.588
	v13.239c0,2.196-0.154,3.854-0.464,4.973c-0.311,1.118-0.939,1.937-1.888,2.456c-0.949,0.52-2.4,0.779-4.358,0.779
	C262.851,35.24,261.024,35.16,259.347,35z M267.839,27.047c0.669-0.309,1.132-0.793,1.393-1.452c0.199-0.479,0.33-1.028,0.39-1.647
	s0.089-1.457,0.089-2.516c0-1.039-0.024-1.862-0.074-2.473c-0.05-0.608-0.164-1.133-0.344-1.572
	c-0.281-0.738-0.76-1.273-1.438-1.603s-1.599-0.494-2.755-0.494c-1.42,0-2.438,0.14-3.056,0.42c-0.619,0.28-1.039,0.833-1.258,1.662
	c-0.221,0.829-0.33,2.183-0.33,4.06s0.109,3.219,0.33,4.027c0.219,0.809,0.639,1.354,1.258,1.633c0.617,0.281,1.636,0.42,3.056,0.42
	C266.255,27.512,267.169,27.357,267.839,27.047z"/>
</svg>
