<?xml version="1.0" encoding="utf-8"?>
<!-- Generator: Adobe Illustrator 15.0.2, SVG Export Plug-In  -->
<!DOCTYPE svg PUBLIC "-//W3C//DTD SVG 1.1//EN" "http://www.w3.org/Graphics/SVG/1.1/DTD/svg11.dtd" [
	<!ENTITY ns_flows "http://ns.adobe.com/Flows/1.0/">
]>
<svg version="1.1"
	 xmlns="http://www.w3.org/2000/svg" xmlns:xlink="http://www.w3.org/1999/xlink" xmlns:a="http://ns.adobe.com/AdobeSVGViewerExtensions/3.0/"
	 x="0px" y="0px" width="24px" height="24px" viewBox="0 0 24 24" enable-background="new 0 0 24 24" xml:space="preserve">
<defs>
</defs>
<circle fill="#00CAEA" cx="12" cy="12" r="12"/>
<path fill="#FFFFFF" d="M19.306,9.092c-0.465,0.203-0.963,0.344-1.486,0.406c0.533-0.321,0.943-0.828,1.139-1.434
	c-0.504,0.297-1.055,0.514-1.645,0.629c-0.471-0.502-1.145-0.816-1.889-0.816c-1.428,0-2.586,1.158-2.586,2.587
	c0,0.202,0.023,0.399,0.066,0.589c-2.15-0.107-4.055-1.136-5.334-2.699C7.353,8.732,7.224,9.177,7.224,9.65
	c0,0.898,0.457,1.689,1.15,2.154c-0.424-0.013-0.822-0.13-1.172-0.325c0,0.011,0,0.022,0,0.034c0,1.254,0.893,2.297,2.076,2.535
	c-0.219,0.061-0.445,0.09-0.682,0.09c-0.166,0-0.328-0.016-0.486-0.043c0.328,1.025,1.283,1.773,2.414,1.797
	c-0.883,0.691-1.998,1.105-3.209,1.105c-0.213,0-0.416-0.012-0.621-0.035c1.148,0.732,2.506,1.16,3.967,1.16
	c4.76,0,7.359-3.941,7.359-7.359c0-0.111,0-0.222-0.006-0.336C18.519,10.064,18.958,9.607,19.306,9.092"/>
</svg>
